<?xml version="1.0" encoding="UTF-8"?>
<svg xmlns="http://www.w3.org/2000/svg" version="1.1" viewBox="0 0 112 32">
  <defs>
    <style>
      .cls-1 {
        fill: #fff;
      }
    </style>
  </defs>
  <!-- Generator: Adobe Illustrator 28.7.1, SVG Export Plug-In . SVG Version: 1.2.0 Build 142)  -->
  <g>
    <g id="Layer_1">
      <path class="cls-1" d="M112,0v32h-32V0h32ZM72,0v32h-32V0h32ZM32,0v32H0V0h32ZM97.5,6.8c-1.4,0-2.7.2-3.9.6-1.2.4-2.2,1-3,1.9-.8.8-1.5,1.8-1.9,2.9-.4,1.1-.7,2.4-.7,3.8s.2,2.7.6,3.9c.4,1.1,1,2.1,1.8,2.9.8.8,1.8,1.4,2.9,1.8,1.2.4,2.4.6,3.9.6s2.1-.1,3.1-.4c1-.2,1.8-.6,2.6-1h0v-3.4c-1.6,1-3.3,1.5-5.2,1.5s-2.3-.2-3.1-.7c-.9-.5-1.5-1.1-2-2-.4-.9-.7-1.9-.7-3.2s.2-2.3.7-3.2c.5-.9,1.1-1.5,2-2,.9-.5,1.9-.7,3.2-.7s1.8.1,2.6.4c.8.2,1.6.6,2.3,1h0v-3.5c-.8-.4-1.6-.7-2.5-.9-.9-.2-1.8-.3-2.8-.3ZM55.8,7h-6.8v18h7.2c1.4,0,2.6-.2,3.6-.6,1-.4,1.8-1,2.3-1.8.5-.8.8-1.7.8-2.8s-.3-2-.8-2.8c-.6-.8-1.4-1.3-2.4-1.7.8-.4,1.3-.9,1.7-1.5.4-.6.6-1.4.6-2.2,0-1.5-.5-2.6-1.6-3.4-1.1-.8-2.6-1.2-4.6-1.2h0ZM15.8,7h-6.8v18h7.2c1.4,0,2.6-.2,3.6-.6,1-.4,1.8-1,2.3-1.8.5-.8.8-1.7.8-2.8s-.3-2-.8-2.8c-.6-.8-1.4-1.3-2.4-1.7.8-.4,1.3-.9,1.7-1.5.4-.6.6-1.4.6-2.2,0-1.5-.5-2.6-1.6-3.4-1.1-.8-2.6-1.2-4.6-1.2h0ZM55.9,17.2c2.2,0,3.4.8,3.4,2.5s-.3,1.4-.9,1.8c-.6.4-1.4.6-2.5.6h-3.2v-4.9h3.2ZM15.9,17.2c2.2,0,3.4.8,3.4,2.5s-.3,1.4-.9,1.8c-.6.4-1.4.6-2.5.6h-3.2v-4.9h3.2ZM55.4,9.9c1.9,0,2.9.7,2.9,2.1s-.2,1.3-.7,1.7c-.5.4-1.2.6-2.2.6h-2.8v-4.5h2.8ZM15.4,9.9c1.9,0,2.9.7,2.9,2.1s-.2,1.3-.7,1.7c-.5.4-1.2.6-2.2.6h-2.8v-4.5h2.8Z"/>
    </g>
  </g>
</svg>