<?xml version="1.0" encoding="UTF-8"?>
<svg xmlns="http://www.w3.org/2000/svg" id="Layer_2" data-name="Layer 2" viewBox="0 0 219.01 69.4">
  <defs>
    <style>
      .cls-1 {
        fill: #000000;
      }
    </style>
  </defs>
  <g id="Layer_1-2" data-name="Layer 1">
    <g>
      <g>
        <path class="cls-1" d="M216.87,8.92c-10.8-3.92,3.35,17.03-21.98,18.98,1.62-12.64-6.7-8.07-11.5-1.02-1.69-1-1.55-5.51-3.99-4.98-28.51,39.38,3.17-17.25-31.51,3.99-.69-2.63,2.52-2.27,3.01-3.68.36-1.05.72-3.7-1.53-3.33-4.08.68-12.66,20.02-22.49,16.01-1.92-1.92,7.3-12.71.49-11.01-4.92,1.23-3.25,10.11-8.57,13.42-7.58,4.71-7.14-4.16-3.91-8.88-7.06-5.66-6.45,9.18-13,9.47-3.29-5,4.38-9.88-2.4-11.95-3.48.71-5.13,17.38-12.6,15.95,1.97-19.53-10.99-11.05-12.44,1.21-2.92-2.48-1.67-12.45-7.64-8.77-1.96,1.41.03,14.46-5.92,14.57-1.41-5.36,5.07-22.55-4.87-12.36-11.25,25.2-6.75,8.45-11.35-4.92-5.69-8.93-8.13,17.13-11.77,17.28-2.95-20.92-11.6-59.22-18.5-13C2.39-30.05-6.89,72.23,6.8,64.81c.93-1.05-.48-24.02,2.1-27.91,7.46,4.6-.73,31.47,10.99,26.99-8.28-40.94,4.95-61.49,11.23-5.72,7.99,12.26,3.47-17.65,10.28-21.26,1.78,3.75,3.09,19.34,9.01,18.96,2.2-.14,3.73-11.36,5.99-12.96,2.21,13.51,9.77,14.03,11.51,0,2.09-1.62,3.99,16.64,8.99,3,1.05-2.87,1.46-9.74,4.51-10.99,2.06-.84,1.41,1.38,1.48,2.48-1.17,15.49,9.32,5.42,13.71.62,5.83,1.73,5.73,4.24,11.79-.11,4.46,4.35,11.01,1.91,16.13-.71,5.05,1.49,11.4-.01,15.36-4.3-8.01,8.17-15.98,48.57,4.46,32.95,8.9-15.63-8.75-46.4,18.55-40.45-1.49,16.81,2.29,24.01,12,4.5.12.12,1.35-.3,1.75.21,1.42,12.06,10.41-1.36,12.76-6.2,3.42-.06-.35,5.69,3.13,6.86,6.88,1.53,12.23-6.35,18.36-5.86-1.74,1.81-3.06,13.35,1.99,9.99,1.2-6.55,1.64-18.86,3.99-25.97ZM141.64,65.63c-16.41,6.96-6.54-26.76,1.24-30.73,2.07,6.5,3.83,25.93-1.24,30.73Z"></path>
        <path class="cls-1" d="M168.54,10c8.87,6.92,19.97-.85,6.55-.32-1.23-.73-.97-5.25-6.48-3.61-7.25,3.04-10.38,13.12-.08,3.92Z"></path>
        <path class="cls-1" d="M50.39,20.8c4.21-.1,11.16,3.65,12.5-2.9-5.14,3.04-9.32-1.41-13.39-1-11.31,3.59-12.53,9.34.9,3.9Z"></path>
      </g>
      <circle class="cls-1" cx="215.74" cy="3.27" r="3.27"></circle>
    </g>
  </g>
</svg>
