<?xml version="1.0" encoding="UTF-8"?>
<svg xmlns="http://www.w3.org/2000/svg" version="1.1" viewBox="0 0 568 178">
  <defs>
    <style>
      .cls-1 {
        fill: #fff;
      }
    </style>
  </defs>
  <!-- Generator: Adobe Illustrator 28.7.1, SVG Export Plug-In . SVG Version: 1.2.0 Build 142)  -->
  <g>
    <g id="Layer_1">
      <path class="cls-1" d="M8.6,23.2C5.8,12.2,3.8,7.8.5,3.1v-.2h19.8v.2c-1.8,3.9-2.5,11.3-.2,20.7l12.2,50.5,14.7-48.5-.8-2.6c-3-11-4.7-15.3-8.1-20.1v-.2h19.8v.2c-1.5,3.6-2.8,11.3-.2,20.7l13.3,49.5,10.8-43.4c3.5-14.3,1.8-22.8-.2-26.8v-.2h11.2v.2c-4.5,6.1-5.4,12-7.9,22.7l-17.2,69.3h-1.9L48,29.4l-19.7,65.7h-1.9L8.6,23.2h0ZM97.9,94.1v-.2c2.5-7.4,3.7-12.6,3.7-20.8V23.9c0-8.4-1.2-13.2-3.7-20.8v-.2h43.8l3.7,22.2-.8.4c-5-7-11.9-19.4-16-19.8l-16-.9v42.1h8.2c4.7,0,8.4-8.4,11.8-13.1h.9v28.2h-.9c-3-4.4-7.2-12.6-11.8-12.6h-8.2v42.9l16.9-.9c7.8-.4,15.1-12.7,20.4-22.3l.8.4-4.2,24.7h-48.6s0,0,0,0ZM160,71.5V25.4c0-10.1-.8-14.7-3.8-22.3v-.2h22.4c20.8,0,26.8,11.8,26.8,25.2s-9.7,28.7-28.3,28.7h-6.3v14.8c0,10.3.7,14.6,3.8,22.3v.2h-18.5v-.2c3-7.6,3.8-12.2,3.8-22.3ZM174.5,5.3c-.9,0-2.1.1-3.6.2v48.6h5.9c12.5,0,17.6-12.6,17.6-25.9s-7.9-22.9-17.5-22.9h-2.5ZM214.8,71.5V25.4c0-10.1-.8-14.7-3.8-22.3v-.2h24.2c17.2,0,24,8.7,24,21.8s-4.3,19.1-13.8,23.1l11.3,29.1c4,10.5,6.1,13.2,11,16.5v.9h-16.7l-17.1-44h-8.2v21.4c0,10.3.7,14.6,3.8,22.3v.2h-18.5v-.2c3-7.6,3.8-12.3,3.8-22.4ZM230.3,5.3c-1.2,0-2.8,0-4.6.1v42.1h7.4c11.9,0,15-10.7,15-23.1s-3.3-19.2-15-19.2h-2.8ZM273,94.1v-.2c2.5-7.4,3.7-12.6,3.7-20.8V23.9c0-8.4-1.2-13.2-3.7-20.8v-.2h43.8l3.7,22.2-.8.4c-5-7-11.9-19.4-16-19.8l-16-.9v42.1h8.2c4.7,0,8.4-8.4,11.8-13.1h.9v28.2h-.9c-3-4.4-7.2-12.6-11.8-12.6h-8.2v42.9l16.9-.9c7.8-.4,13.7-8.7,19-18.3l.8.4-2.8,20.6h-48.6s0,0,0,0ZM369.9,27.5c-6.6-18.5-12.9-24.1-19.6-24.1s-10.3,5.5-10.3,14,8,16.8,16.4,22.2c9.4,6,19.1,12.5,19.1,29.8s-11.5,26.6-24.9,26.6c-6.8-.1-13.5-1.8-19.5-4.9l-1.2-17.6.8-.4c7.3,18,14,20.4,22.7,20.4s12.8-8,12.8-17.1-6.8-17.8-14.7-22.8c-9.9-6.4-19.8-12.6-19.8-28.8,0-17.2,10.5-23.8,21.9-23.8,5.4,0,10.6,1.3,15.5,3.6l1.9,22.6-.9.4ZM380.8,94.1v-.2c2.5-7.4,3.7-12.6,3.7-20.8V23.9c0-8.4-1.2-13.2-3.7-20.8v-.2h43.8l3.7,22.2-.8.4c-5-7-11.9-19.4-16-19.8l-16-.9v42.1h8.2c4.6,0,8.4-8.4,11.8-13.1h.8v28.2h-.9c-3-4.4-7.2-12.6-11.8-12.6h-8.2v42.9l16.9-.9c7.8-.4,15.1-12.7,20.4-22.3l.8.4-4.2,24.7h-48.6s0,0,0,0ZM445.9,69.3c0,11.2,1.2,15.8,6.5,24.6v.2h-14.6v-.2c4.7-8.6,5.8-13.5,5.8-24.6V20.4c-.5-8.2-2.1-11.7-7.4-17.3v-.2h15.2l39.7,71-.3-46.1c0-11.1-1.2-16-5.8-24.6v-.2h13.7v.2c-4.6,8.7-5.8,13.3-5.8,24.6v66.5l-3.4.4-44-78.5.4,53.4h0ZM525.7,94.1v-.2c3-7.6,3.8-12.2,3.8-22.3V4.9l-10.3.5c-4.2.4-11.2,14.3-16,23.4l-.8-.4,3.6-25.7h58l3.6,25.7-.8.4c-5.1-9.1-11.8-23.1-16-23.4l-10.3-.5v66.6c0,10.3.7,14.6,3.8,22.3v.2s-18.5,0-18.5,0ZM11.4,131.4h4.4v13.6c1.1-1.4,2.3-2.5,3.7-3.3,1.4-.8,3.1-1.2,5-1.2,1.9,0,3.5.3,4.9,1,1.4.7,2.6,1.6,3.5,2.8.9,1.2,1.6,2.6,2.1,4.3.5,1.7.7,3.5.7,5.5s-.3,4.1-.8,5.8c-.5,1.7-1.3,3.2-2.3,4.4-1,1.2-2.3,2.2-3.7,2.8-1.4.7-3,1-4.8,1-1.5,0-3-.3-4.4-.9-1.4-.6-2.7-1.7-3.9-3.2v3.3h-4.4s0-36,0-36ZM15.7,155.1c0,1.7.2,3.1.6,4.3.4,1.2.9,2.2,1.6,2.9.7.8,1.5,1.3,2.4,1.7.9.4,2,.5,3.1.5,1,0,2.1-.2,3-.6.9-.4,1.7-1,2.4-1.8.7-.8,1.2-1.9,1.6-3.2.4-1.3.6-2.9.6-4.8,0-1.9-.2-3.5-.6-4.8-.4-1.3-1-2.3-1.6-3.1-.7-.8-1.4-1.3-2.3-1.7-.8-.3-1.7-.5-2.7-.5-1.1,0-2.2.2-3.2.6-1,.4-1.8,1-2.6,1.7-.7.8-1.3,1.7-1.7,2.9-.4,1.2-.6,2.5-.6,4,0,0,0,1.8,0,1.8ZM62.5,141.3l-15.1,35.8h-4.6l4.7-10.4-10.8-25.4h5.1l7.9,20.3,7.9-20.3h4.9,0ZM74.2,131.4h5.3l7.5,29.6,7.8-29.4h5l7.8,29.4,7.5-29.6h5l-10,36h-4.9l-8-30.1-7.9,30.1h-4.8l-10.3-36ZM143.8,160.1c-.4,2.5-1.6,4.5-3.4,5.9-1.8,1.4-4.4,2.2-7.8,2.2s-7-1.2-9.2-3.6-3.2-5.8-3.2-10.1.3-4.3.9-6c.6-1.7,1.5-3.2,2.6-4.4,1.1-1.2,2.4-2.1,3.9-2.7,1.5-.6,3.2-.9,5-.9s3.8.3,5.2,1c1.4.6,2.6,1.5,3.6,2.6.9,1.1,1.6,2.5,2.1,4,.5,1.5.7,3.2.7,5.1v2.2h-19.4c0,1.3.2,2.5.5,3.7.4,1.1.9,2.1,1.5,2.9.7.8,1.5,1.5,2.5,1.9,1,.5,2.1.7,3.4.7,2.2,0,3.8-.4,4.8-1.2,1-.8,1.7-1.9,2.1-3.4h4.2ZM139.8,152.1c0-1.2-.1-2.4-.4-3.4-.3-1-.7-1.9-1.3-2.6-.6-.7-1.3-1.3-2.2-1.7-.9-.4-2-.6-3.3-.6-2.3,0-4.1.7-5.4,2.1s-2.1,3.5-2.3,6.2h14.9ZM152.3,135.5h-11.9v-4.1h28.6v4.1h-11.9v31.9h-4.7v-31.9h0Z"/>
      <path class="cls-1" d="M165.7,141.3h4.3v4c1-1.4,2.1-2.6,3.4-3.3,1.3-.8,2.7-1.2,4.2-1.2.9,0,1.7,0,2.3.2l-.6,4.1c-.3,0-.7-.1-1-.2-1.2-.2-2.4,0-3.6.4-.8.3-1.6.8-2.4,1.4-.7.6-1.3,1.4-1.7,2.2-.4.8-.6,1.8-.6,2.9v15.5h-4.4v-26.1s0,0,0,0ZM205.8,141.3v26.1h-4.3v-3.7c-1.1,1.4-2.3,2.6-3.7,3.4-1.4.8-3.1,1.2-5,1.2s-4.7-.6-6.3-1.8c-1.6-1.2-2.8-2.9-3.6-4.9-.8-2.1-1.2-4.4-1.2-7,0-4.3,1-7.7,3.1-10.2,2.1-2.5,4.9-3.7,8.5-3.7s2.8.3,4.2.9c1.4.6,2.8,1.7,4,3.2v-3.3h4.3ZM201.6,153.6c0-2.1-.2-3.7-.7-4.9s-1.2-2.1-2.2-3c-.7-.6-1.5-1-2.3-1.3-.8-.2-1.7-.4-2.5-.4-1.4,0-2.7.3-3.9,1-1.2.7-2.1,1.8-2.8,3.2-.7,1.5-1,3.5-1,6s.4,4.6,1.1,6.1c.7,1.5,1.6,2.5,2.7,3.2s2.3.9,3.5.9,1.9-.1,2.6-.3,1.6-.6,2.3-1.2c1-.8,1.8-1.8,2.3-3,.5-1.2.8-2.8.8-4.6v-1.8s0,0,0,0ZM210.8,141.3h4.4v4c1.3-1.7,2.7-2.9,4.2-3.7,1.5-.7,3.2-1.1,4.9-1.1,3,0,5.2.8,6.6,2.4,1.4,1.6,2.1,4,2.1,7.1v17.3h-4.4v-16.5c0-2.4-.4-4.1-1.3-5.1-.9-1-2.2-1.5-4-1.5-1,0-2,.2-2.9.5-1,.3-1.9.9-2.6,1.6-.8.7-1.5,1.5-1.9,2.3-.4.8-.7,1.9-.7,3.2v15.4h-4.4v-26.1ZM241.5,159.8c.3,1.8,1.1,3.1,2.3,3.8,1.2.7,2.9,1.1,5,1.1,2.2,0,3.8-.4,4.7-1.1.9-.8,1.4-1.8,1.4-3,0-.5,0-1-.2-1.4-.1-.5-.4-.9-.7-1.2-.3-.4-.8-.7-1.4-.9-.6-.3-1.4-.5-2.4-.7l-3.3-.5c-1.5-.2-2.8-.5-3.9-.9-1.1-.4-2.1-.8-2.8-1.4-.8-.6-1.4-1.3-1.7-2.2-.4-.9-.6-1.9-.6-3.1s.3-2.3.8-3.2c.5-1,1.3-1.8,2.2-2.4.9-.7,2-1.2,3.3-1.5,1.3-.4,2.6-.5,4.1-.5,1.9,0,3.5.2,4.7.6,1.3.4,2.3.9,3.1,1.5.8.6,1.4,1.4,1.9,2.3.4.9.8,1.8,1,2.8l-4,.7c-.2-.6-.5-1.3-.8-1.9-.3-.5-.7-1-1.2-1.3-.5-.4-1.1-.6-1.8-.8-.7-.2-1.6-.3-2.7-.3s-2.2.1-3,.3c-.8.2-1.5.5-1.9.9-.5.4-.8.8-1,1.2-.2.5-.3.9-.3,1.4,0,.5,0,1,.2,1.4.1.4.4.8.8,1.1.4.3.9.6,1.5.8.6.2,1.5.4,2.5.6l3.8.6c3.1.5,5.3,1.4,6.6,2.6s2,3.1,2,5.4-.2,2.1-.7,3.1c-.4.9-1.1,1.7-2,2.4-.9.7-2,1.2-3.3,1.6-1.3.4-2.8.6-4.6.6s-3.1-.2-4.4-.5c-1.4-.3-2.6-.8-3.6-1.4-1-.6-1.9-1.5-2.5-2.6-.6-1.1-1-2.4-1.1-3.9h4.2s0,0,0,0ZM266,139.1c0-1.9.4-3.4,1.1-4.6s1.6-2.1,2.8-2.6,2.5-.9,3.9-.9c.7,0,1.5,0,2.2.1.8,0,1.5.3,2.2.5l-.7,3.4c-.5-.2-1-.3-1.5-.3-.5,0-1,0-1.4,0-1.2,0-2.2.3-3,.9-.8.6-1.3,1.8-1.3,3.4v2.4h6.6v3.5h-6.6v22.6h-4.4v-22.6h-4.1v-3.3h2.3c.9,0,1.4-.2,1.6-.5.2-.3.3-.9.3-1.9h0ZM302.2,160.1c-.4,2.5-1.6,4.5-3.4,5.9-1.8,1.4-4.4,2.2-7.8,2.2s-7-1.2-9.2-3.6c-2.1-2.4-3.2-5.8-3.2-10.1s.3-4.3.9-6c.6-1.7,1.5-3.2,2.6-4.4,1.1-1.2,2.4-2.1,3.9-2.7,1.5-.6,3.2-.9,5-.9s3.8.3,5.2,1c1.5.6,2.6,1.5,3.6,2.6s1.6,2.5,2.1,4c.5,1.5.7,3.2.7,5.1v2.2h-19.4c0,1.3.2,2.5.5,3.7s.9,2.1,1.5,2.9c.7.8,1.5,1.5,2.5,1.9,1,.5,2.1.7,3.4.7,2.2,0,3.8-.4,4.8-1.2,1-.8,1.7-1.9,2.1-3.4h4.2s0,0,0,0ZM298.2,152.1c0-1.2-.1-2.4-.4-3.4-.3-1-.7-1.9-1.3-2.6-.6-.7-1.3-1.3-2.2-1.7-.9-.4-2-.6-3.3-.6-2.3,0-4.1.7-5.4,2.1-1.3,1.4-2.1,3.5-2.3,6.2h14.9ZM307.4,141.3h4.3v4c1-1.4,2.1-2.6,3.4-3.3,1.3-.8,2.7-1.2,4.2-1.2.9,0,1.7,0,2.3.2l-.6,4.1c-.3,0-.7-.1-1-.2-.4,0-.7,0-1.1,0-.8,0-1.7.2-2.5.4-.8.3-1.6.8-2.4,1.4-.7.6-1.3,1.4-1.7,2.2-.4.8-.6,1.8-.6,2.9v15.5h-4.4v-26.1s0,0,0,0Z"/>
    </g>
  </g>
</svg>